<svg width="1924" height="1300" viewBox="0 0 1924 1300" fill="none" xmlns="http://www.w3.org/2000/svg">
<g clip-path="url(#clip0_2169_23226)">
<path d="M0 0H1924" stroke="white" stroke-opacity="0.4"/>
<path d="M0 800H1924" stroke="white" stroke-opacity="0.4"/>
<path d="M0 100H1924" stroke="white" stroke-opacity="0.4"/>
<path d="M0 900H1924" stroke="white" stroke-opacity="0.4"/>
<path d="M0 200H1924" stroke="white" stroke-opacity="0.4"/>
<path d="M0 1000H1924" stroke="white" stroke-opacity="0.4"/>
<path d="M0 300H1924" stroke="white" stroke-opacity="0.4"/>
<path d="M0 1100H1924" stroke="white" stroke-opacity="0.4"/>
<path d="M0 400H1924" stroke="white" stroke-opacity="0.4"/>
<path d="M0 1200H1924" stroke="white" stroke-opacity="0.4"/>
<path d="M0 500H1924" stroke="white" stroke-opacity="0.4"/>
<path d="M0 1300H1924" stroke="white" stroke-opacity="0.4"/>
<path d="M0 600H1924" stroke="white" stroke-opacity="0.4"/>
<path d="M0 700H1924" stroke="white" stroke-opacity="0.4"/>
<path d="M0 1300L0 -624" stroke="white" stroke-opacity="0.4"/>
<path d="M800 1300L800 -624" stroke="white" stroke-opacity="0.4"/>
<path d="M100 1300L100 -624" stroke="white" stroke-opacity="0.4"/>
<path d="M900 1300L900 -624" stroke="white" stroke-opacity="0.4"/>
<path d="M200 1300L200 -624" stroke="white" stroke-opacity="0.4"/>
<path d="M1000 1300L1000 -624" stroke="white" stroke-opacity="0.4"/>
<path d="M300 1300L300 -624" stroke="white" stroke-opacity="0.4"/>
<path d="M1100 1300L1100 -624" stroke="white" stroke-opacity="0.4"/>
<path d="M400 1300L400 -624" stroke="white" stroke-opacity="0.4"/>
<path d="M1200 1300L1200 -624" stroke="white" stroke-opacity="0.4"/>
<path d="M500 1300L500 -624" stroke="white" stroke-opacity="0.4"/>
<path d="M1300 1300L1300 -624" stroke="white" stroke-opacity="0.4"/>
<path d="M600 1300L600 -624" stroke="white" stroke-opacity="0.4"/>
<path d="M700 1300L700 -624" stroke="white" stroke-opacity="0.4"/>
<path d="M1300 1300L1300 -624" stroke="white" stroke-opacity="0.4"/>
<path d="M1400 1300L1400 -624" stroke="white" stroke-opacity="0.4"/>
<path d="M1500 1300L1500 -624" stroke="white" stroke-opacity="0.4"/>
<path d="M1600 1300L1600 -624" stroke="white" stroke-opacity="0.4"/>
<path d="M1700 1300L1700 -624" stroke="white" stroke-opacity="0.4"/>
<path d="M1800 1300L1800 -624" stroke="white" stroke-opacity="0.4"/>
<path d="M1900 1300L1900 -624" stroke="white" stroke-opacity="0.4"/>
</g>
<defs>
<clipPath id="clip0_2169_23226">
<rect width="1924" height="1300" fill="white"/>
</clipPath>
</defs>
</svg>
